<mxfile host="app.diagrams.net" modified="2024-06-19T14:26:18.021Z" agent="Mozilla/5.0 (Windows NT 10.0; Win64; x64) AppleWebKit/537.36 (KHTML, like Gecko) Chrome/126.0.0.0 Safari/537.36" version="24.4.14" etag="Ja_uMGHoWag778oQ7cIC" type="github">
  <diagram name="Page-1" id="lHXSTUnZiZ-C-EaOX3wS">
    <mxGraphModel>
      <root>
        <mxCell id="0" />
        <mxCell id="1" parent="0" />
      </root>
    </mxGraphModel>
  </diagram>
</mxfile>
